<svg width="92" height="32" viewBox="0 0 92 32" fill="none" xmlns="http://www.w3.org/2000/svg">
<path d="M60.4772 0V5.68877H69.1168V8.77042H60.4772V14.4592H74.7209V4.32558C74.7209 1.93665 72.7977 0 70.4254 0H60.4772Z" fill="#E15959"/>
<path fill-rule="evenodd" clip-rule="evenodd" d="M0 5.68877V0H5.60407V5.68877H0ZM8.63956 8.77042V0H14.2436V14.4592H5.60407V23.2295H4.29517C1.92314 23.2295 0 21.2929 0 18.9039V8.77042H8.63956ZM17.2791 14.4592V0H27.2272C29.5996 0 31.5227 1.93665 31.5227 4.32558V23.2295H25.9187V5.68877H22.8832V14.4592H17.2791ZM34.5582 5.68877V0H53.1462C55.5186 0 57.4418 1.93665 57.4418 4.32558V14.4592H51.8377V5.68877H48.8019V14.4592H43.1981V5.68877H34.5582ZM77.7564 14.4592V0H87.7048C90.0772 0 92 1.93665 92 4.32558V18.9039C92 21.2929 90.0772 23.2295 87.7048 23.2295H86.3963V5.68877H83.3604V14.4592H77.7564ZM34.5582 14.4592V8.77042H40.1623V14.4592H34.5582Z" fill="#E15959"/>
<path fill-rule="evenodd" clip-rule="evenodd" d="M34.5582 17.5408V26.3111H25.9187V27.6745C25.9187 30.0632 27.8418 32 30.2142 32H40.1623V23.2295H43.1981V27.6745C43.1981 30.0632 45.1213 32 47.4933 32H57.4417V23.2295H60.4772V27.6745C60.4772 30.0632 62.4004 32 64.7728 32H83.3604V21.8664C83.3604 19.4774 81.4373 17.5408 79.0649 17.5408H69.1168V23.2295H77.7564V26.3111H66.0813V17.5408H34.5582ZM51.8377 23.2295H48.8018V26.3111H51.8377V23.2295Z" fill="#E15959"/>
<path fill-rule="evenodd" clip-rule="evenodd" d="M8.63954 17.5408V32H22.8832V21.8664C22.8832 19.4774 20.96 17.5408 18.5876 17.5408H8.63954ZM17.2791 23.2295H14.2436V26.3111H17.2791V23.2295Z" fill="#E15959"/>
</svg>
